<svg xmlns="http://www.w3.org/2000/svg" preserveAspectRatio="xMidYMid" width="20" height="20" viewBox="0 0 19 19"><defs><style>.cls-2 { fill: #bedf3f; fill-opacity: 0.81; }</style></defs><path d="M8.022 0h2.466v.068h.432v.074h.365v.074h.358V.29h.223v.07h.216v.073h.29v.074h.143v.068h.216V.65h.15v.073h.215v.074h.143v.068h.148V.94h.142v.074h.148v.068h.068v.074h.15v.074h.14v.074h.15v.068h.067v.074h.15v.074h.067v.068h.15v.075h.073v.074h.068v.074h.148v.07h.068v.073h.074v.074h.15V2.1h.067v.07h.074v.073h.073v.075h.068v.068h.075v.074h.074v.074h.14v.074h.075v.068h.075v.074h.074v.142h.068v.074h.074v.075h.074v.075h.068v.068h.074v.074h.074v.074h.074v.143h.068v.074h.075v.074h.074v.144h.068v.074h.074v.068h.073v.148h.074v.074h.068v.142h.074v.074h.073v.143h.068v.148h.076v.142h.074v.074h.074v.143h.068v.15h.074v.14h.074v.15h.068v.215h.074v.143h.074v.217h.075v.148h.07v.29h.073v.217h.074v.216h.074v.365h.07V7.6h.073v.434h.074V10.5h-.074v.432h-.074v.365h-.07v.358h-.073v.222h-.074v.217h-.074v.29h-.07v.142h-.074v.217h-.074v.148h-.074v.143h-.068v.216h-.074v.148h-.074v.142h-.068v.148h-.074v.068h-.074v.148h-.075v.143h-.067v.148h-.074v.068h-.075v.148h-.068v.07h-.074v.148h-.074v.074h-.075v.068h-.068v.148h-.074v.068h-.075v.074H16.5v.148h-.074v.068h-.074v.075h-.074v.075h-.068v.068h-.074v.074h-.074v.074h-.068v.143h-.074v.074h-.075v.074h-.074v.076h-.14v.068h-.075v.074h-.074v.074h-.067v.068h-.074v.074h-.075v.074h-.068v.074h-.15v.068h-.073v.074h-.068v.075h-.148v.067h-.068v.074h-.074v.075h-.15v.074H14.4v.067h-.15v.074h-.067v.075h-.148v.068h-.142v.074h-.15v.075h-.067v.074h-.148v.068h-.142v.074h-.148v.074h-.143v.068h-.216v.074h-.15v.074h-.215v.074h-.143v.068h-.29v.075h-.216v.074h-.223v.073h-.358v.068h-.365v.075h-.432v.074H8.022v-.075H7.59v-.074h-.36v-.067h-.364v-.074H6.65v-.075h-.216V18.1h-.29v-.068h-.15v-.074H5.78v-.074h-.143v-.074h-.15v-.068h-.215v-.074H5.13v-.074h-.148v-.068H4.84v-.074h-.075v-.075h-.142v-.074h-.148v-.068h-.142v-.074H4.26v-.073h-.144v-.068h-.074v-.075h-.148v-.074h-.068v-.073h-.074v-.068H3.61v-.076h-.075v-.074H3.46v-.068h-.14v-.074h-.075v-.074H3.17v-.074h-.067v-.068H3.03v-.074h-.075v-.074H2.88v-.068h-.142v-.075h-.074v-.073h-.068v-.074h-.074v-.142h-.074v-.073h-.074v-.074h-.068v-.068h-.074v-.074h-.075v-.074H2.09v-.068h-.075v-.148H1.94v-.074h-.073v-.068H1.8v-.148h-.075v-.068H1.65v-.074h-.074v-.15H1.51v-.067h-.076v-.147H1.36v-.068h-.068v-.148h-.074v-.143h-.074v-.148H1.07v-.068h-.068v-.148H.928v-.142H.854v-.15H.786v-.215H.71v-.142H.638v-.147H.563v-.217H.495v-.142H.42v-.29H.348v-.217H.28v-.222H.204v-.358H.13v-.365H.056V10.5h-.068V8.033h.068V7.6H.13v-.357h.075v-.365H.28v-.216h.067v-.216H.42v-.29h.075v-.15h.068v-.215h.074V5.65H.71v-.216h.076v-.148h.068v-.142h.074v-.15h.074v-.14h.068v-.075h.074v-.142h.074v-.148h.074v-.143h.068V4.27h.074v-.142h.075v-.074h.066v-.148h.075v-.068h.075v-.074H1.8V3.62h.067v-.073h.074v-.074h.075V3.33h.074v-.073h.067v-.074h.075v-.068h.074V3.04h.068v-.074h.074v-.074h.074V2.75h.074v-.074h.068v-.068h.074v-.074h.142V2.46h.075v-.074h.074v-.068h.073v-.075h.068V2.17h.075V2.1h.074v-.073h.14v-.074h.075V1.88h.075v-.07h.142v-.073h.074v-.074h.068v-.075h.148V1.52h.074v-.074h.143v-.074h.073v-.068h.142V1.23h.148v-.074h.142v-.074h.074v-.068h.142V.94h.148V.864h.142V.797h.216V.723h.15V.65h.14V.574h.217V.507h.148V.433h.29V.36h.217V.29h.216V.217h.365V.142h.36V.068h.432V0zm0 3.04v.075h-.216v.068h-.142v.074H7.59v.074h-.075v.07h-.068v.073h-.074v.074H7.3v.074h-.07v.07h-.073v.074h-.074v.074h-.075v.068H6.94v.074h-.074v.074h-.074v.074h-.068v.068H6.65v.074h-.074v.074h-.074v.075h-.068v.067H6.36v.074h-.075v.075H6.21v.142h-.067v.433h.068v.148h.075V5.5h.075v.074h.074v.074h.068v.068h.074v.075h.074v.075h.074v.074h.068v.067h.074v.074h.074v.075h.068v.068h.075v.074h.074v.074h.074v.076h.07v.068h.073v.074h.074v.074h.068v.074h.074v.068h.074v.074h.074v.074h.068v.068h.074v.075h.074v.074h.068v.073h.074v.068h.074v.075h.074v.074h.068v.067h.075V7.6h.074v.075h.07v.074h.073v.068h.074v.074h.074v.074h.07v.068h.073v.074h.074v.074h.075v.074h.068v.068h.074v.074h.074v.074h.068v.07H9.4v.073h.074v.074h.074v.073h.068v.068h.074v.075h.075v.074h.068v.073h.074v.068h.074v.076h.075v.142H9.98v.074h-.073v.074h-.074v.074h-.068v.068H9.69v.074h-.074v.074h-.068v.068h-.074v.075H9.4v.073h-.074v.074h-.068v.068h-.074v.074H9.11v.073h-.068v.068h-.075v.075h-.074v.074H8.82v.074h-.07v.068h-.073v.074h-.074v.074H8.53v.068h-.07v.074h-.073v.074h-.075v.074h-.068v.068H8.17v.075h-.074v.074h-.074v.074h-.068v.07H7.88v.073h-.074v.074h-.068v.068h-.074v.074H7.59v.073h-.075v.074h-.068v.07h-.074v.073H7.3v.074h-.07v.068h-.073v.074h-.074v.074h-.075v.074H6.94v.068h-.074v.074h-.074v.075h-.068v.07H6.65v.073h-.074v.074h-.074v.074h-.068v.07H6.36v.073h-.075v.142H6.21v.15h-.067v.43h.068v.15h.075v.067h.075v.075h.074v.074h.068v.075h.074v.068h.074v.074h.074v.074h.068v.07h.074v.073h.074v.075h.068v.074h.075v.068h.074v.074h.074v.074h.07v.068h.073v.074h.074v.074h.068v.074h.074v.068h.074v.075h.142v.075h.216v.068h.148v-.068h.217v-.074h.142v-.074h.073v-.068h.074v-.074h.074v-.074h.07v-.074h.073v-.068h.074v-.074h.075v-.074h.068v-.068h.074v-.074h.074v-.075h.068v-.074H9.4v-.07h.074v-.073h.074v-.074h.068v-.068h.074v-.074h.075v-.073h.068v-.075h.074v-.068h.074v-.074h.075v-.074h.068v-.068h.074v-.074h.074v-.074h.07v-.074h.073v-.068h.075v-.074h.074v-.075h.068v-.075h.074v-.068h.074v-.074h.068v-.074h.074v-.07h.074v-.073h.074v-.074h.068v-.074h.075v-.07h.075v-.074h.074v-.074h.067v-.068h.074v-.074h.075v-.074h.068v-.074h.074v-.068h.075v-.074h.074v-.074h.068v-.07h.074v-.073h.074v-.074h.068v-.075h.074v-.068h.074v-.074h.074v-.074h.068v-.07h.075v-.073h.074v-.074h.067v-.075h.074v-.068h.075v-.074h.074v-.074h.067v-.074h.074v-.068h.075v-.074h.068v-.074h.075v-.068h.074V10.5h.074v-.075h.068v-.074h.074v-.067h.074v-.074h.074v-.075h.068v-.068h.074v-.074h.075V9.92h.068v-.076h.075v-.068h.074v-.074h.073V9.56h.068v-.222h.075v-.142h-.074V8.98h-.067v-.15h-.074v-.067h-.075V8.69h-.074v-.075h-.067V8.54h-.075v-.068h-.074v-.074h-.068v-.074h-.074v-.068h-.074v-.074h-.074v-.074h-.068v-.074h-.074v-.068h-.074v-.074h-.075v-.074h-.068v-.07h-.074v-.073h-.073V7.6h-.068v-.073h-.075V7.46h-.074v-.075h-.073V7.31h-.068v-.067h-.075V7.17h-.075v-.075h-.068V7.02h-.074v-.068h-.074v-.074h-.074v-.074h-.068v-.068h-.074v-.074h-.074v-.074h-.068v-.074h-.074v-.068h-.075V6.37h-.074v-.073h-.068v-.074H11.5v-.068h-.073V6.08h-.068v-.073h-.075V5.94h-.074v-.075h-.074V5.79h-.068v-.074h-.074v-.068h-.074v-.074h-.074V5.5h-.068v-.068h-.074v-.074h-.074v-.074h-.068V5.21h-.074v-.068h-.075v-.074h-.074v-.075h-.07v-.068h-.073V4.85h-.074v-.073h-.068v-.074H9.98v-.068h-.073V4.56h-.074v-.073h-.068V4.42H9.69v-.076h-.074V4.27h-.068v-.074h-.074v-.068H9.4v-.074h-.074V3.98h-.068v-.074h-.074v-.068H9.11v-.074h-.068V3.69h-.075v-.07h-.074v-.073H8.82v-.074h-.07V3.4h-.073v-.07h-.074v-.073H8.53v-.074h-.143v-.068H8.17V3.04h-.148z" id="path-1" class="cls-2" fill-rule="evenodd"/></svg>